<?xml version="1.0" encoding="UTF-8" standalone="no"?>
<svg version="1.1" class="icon--tags" xmlns="http://www.w3.org/2000/svg" xmlns:xlink="http://www.w3.org/1999/xlink" x="0px" y="0px"
	 viewBox="0 0 16 16" enable-background="new 0 0 16 16" xml:space="preserve">
	 <g id="icon--tags">
<path id="Tag_1" fill-rule="evenodd" clip-rule="evenodd" d="M15,0H8.1C7.8,0,7.4,0.2,7.2,0.4L0.3,7.3c-0.4,0.4-0.4,1,0,1.4l7,7
	c0.4,0.4,1,0.4,1.4,0l6.9-6.9C15.8,8.6,16,8.2,16,7.9V1C16,0.4,15.6,0,15,0z M11,7C9.9,7,9,6.1,9,5s0.9-2,2-2c1.1,0,2,0.9,2,2
	S12.1,7,11,7z"/>
</g>
</svg>
