<?xml version="1.0" encoding="UTF-8" standalone="no"?>
<svg version="1.1" class="icon--home" xmlns="http://www.w3.org/2000/svg" xmlns:xlink="http://www.w3.org/1999/xlink" x="0px" y="0px"
	 viewBox="0 0 18 16" enable-background="new 0 0 18 16" xml:space="preserve">
<g id="icon--home">
	<path d="M6.5,16H3c-0.6,0-1-0.4-1-1V9H0.5C0,9-0.2,8.7,0.2,8.3l8.1-8c0.4-0.4,1-0.4,1.4,0l8.1,8C18.2,8.7,18,9,17.5,9H16v6
		c0,0.6-0.4,1-1,1h-3.5c-0.3,0-0.5-0.2-0.5-0.5v-4c0-0.3-0.2-0.5-0.5-0.5h-3C7.2,11,7,11.2,7,11.5v4C7,15.8,6.8,16,6.5,16z"/>
</g>
</svg>
