<svg version="1.1" xmlns="http://www.w3.org/2000/svg" xmlns:xlink="http://www.w3.org/1999/xlink" width="24" height="24" viewBox="0 0 24 24">
<path d="M12 0.48c-6.362 0-11.52 5.158-11.52 11.52s5.158 11.52 11.52 11.52 11.52-5.158 11.52-11.52-5.158-11.52-11.52-11.52zM9.18 16.775h-2.333v-7.507h2.333v7.507zM7.999 8.346c-0.737 0-1.213-0.522-1.213-1.168 0-0.659 0.491-1.165 1.243-1.165s1.213 0.506 1.228 1.165c0 0.646-0.475 1.168-1.258 1.168zM17.7 16.775h-2.333v-4.16c0-0.968-0.338-1.626-1.182-1.626-0.644 0-1.027 0.445-1.196 0.874-0.062 0.152-0.078 0.368-0.078 0.583v4.328h-2.334v-5.112c0-0.937-0.030-1.721-0.061-2.395h2.027l0.107 1.043h0.047c0.307-0.49 1.060-1.212 2.318-1.212 1.535 0 2.686 1.028 2.686 3.239v4.439z"></path>
</svg>
