<?xml version="1.0" encoding="UTF-8" standalone="no"?>
<svg version="1.1" class="matter-solutions-logo" xmlns="http://www.w3.org/2000/svg" width="144" height="60" viewBox="0 0 144 60">
<g><title>Matter Solutions</title></g>
<g class="matter" display="inline">
<g class="matter__m" display="inline">
<path d="M26,10.6c2.7-2.3,5.6-3.3,7.6-3.3c2.6,0,4.5,1.8,4.4,4.4c3.2-3.2,6.6-4.4,8.7-4.4c2.7,0,4.4,1.8,4.4,4.3
c0,1.6-0.6,3.7-1.8,6.4l-9.9,24.6c-1,2.7-0.9,4.4,1.7,5.8l-1.9,4.7c-5.7-2.4-7-6.6-5-11.9l8.6-21.4c1.1-2.6,2.1-5,2.1-5.9
c0-0.6-0.3-1.3-1.3-1.3c-1.7,0-4.6,1.7-6.9,4.2L26,43.3h-5.7l9.5-23.5c1.1-2.6,2-5,2-5.9c0-0.6-0.2-1.3-1.3-1.3
c-1.7,0-4.5,1.7-6.8,4.1L13,43.3H7.2l12.4-30.8C13.4,15,5,16.8,5,22c0,2.3,1.7,3.6,3.6,3.6v4.7c-5.1,0-8.4-3.7-8.4-8.1
c0-9.6,12.8-11.5,21.7-15.3L26,10.6z"/>
</g>
<g class="matter__a" display="inline">
<path d="M76.4,31.7c-3.6,6.3-7.8,11.6-12.9,11.6c-4.4,0-4.6-3.8-4.6-3.8s-2.9,3.8-6.8,3.8c-3.1,0-4.7-2.4-4.7-5.5
c0-5,4.2-19.8,12.4-19.8c4.1,0,4.9,3.8,4.9,3.8l7-3.2l-6.1,15.2c-1.9,4.9-1.3,5.9-0.2,5.9c2.1,0,5.7-4.2,8.9-9.7
C75,30.2,76.1,31,76.4,31.7z M59.4,34.7l3.6-8.8c0,0,0-3.1-2.2-3.1c-4.1,0-8,10.6-8,14c0,1.3,0.5,1.9,1.5,1.9
C57,38.7,59.4,34.7,59.4,34.7z"/>
</g>
<g class="matter__t1" display="inline">
<path d="M90,31.7c-3.5,6.1-8.1,11.6-13.4,11.6c-4.2,0-6.6-2.9-3.2-11.2l5.4-13.5h-4.1l1.2-2.9H80l2.5-6.3h5.7l-2.5,6.3h3.9
l-1.2,2.9h-3.9l-6.1,15.2c-2.1,5.3-1.1,5.9,0,5.9c2.6,0,6.2-4,9.5-9.7C88.6,30.2,89.7,31,90,31.7z"/>
</g>
<g class="matter__t2" display="inline">
<path d="M103.6,31.7c-3.5,6.1-8.1,11.6-13.4,11.6c-4.2,0-6.6-2.9-3.2-11.2l5.4-13.5h-4.1l1.2-2.9h4.1l2.5-6.3h5.7
l-2.5,6.3h3.9l-1.2,2.9h-3.9l-6.1,15.2c-2.1,5.3-1.1,5.9,0,5.9c2.6,0,6.2-4,9.5-9.7C102.2,30.2,103.3,31,103.6,31.7z"/>
</g>
<g class="matter__e" display="inline">
<path d="M124.7,31.7c-3.2,5.6-8.5,11.6-16.5,11.6c-5.3,0-8-2.6-8-7.4c0-6.5,5.2-17.9,13.7-17.9c4.8,0,7.8,3.8,5,9.7
c-2.2,4.8-6.1,6.5-12.9,5.7c0,0-2.3,6.3,3.6,6.3c4.6,0,9.5-3.8,12.9-9.7C123.3,30.2,124.5,31,124.7,31.7z M107,30.4
c4.4,0.7,6-1.5,7.1-3.9s1.1-3.8-0.5-3.8C109.8,22.7,107,30.4,107,30.4z"/>
</g>
<g class="matter__r" display="inline">
<path d="M122.6,30.1c1.2-2.1,2.6-5,3.9-8c-0.8-0.9-1.4-1.8-1.4-2.9c0-2.2,2.3-4.5,4.2-5.1l2.7,1.7l-1.7,4
c1.9,1.8,6.2,4,6.2,7.1c0,0.6-0.1,1.3-0.6,2.4l-1.9,4.5c-2.1,5.2-1,5.9-0.3,5.9c1.6,0,4.1-3.3,7.8-9.7c0.8,0,1.9,0.8,2.2,1.6
c-3.6,6.2-7.1,11.6-11.7,11.6c-3.7,0-6.4-2.8-3.1-10.9l1.7-4c0.4-0.9,0.4-1.4,0.4-1.6c0-0.9-1-1.8-2.4-2.9
c-1.2,2.6-2.5,5.2-3.9,7.8C123.9,31.6,122.8,30.9,122.6,30.1z"/>
</g>
</g>
</svg>
